<svg width="1656.188" height="1014.687" xmlns="http://www.w3.org/2000/svg">
  <g transform="translate(-5.837 -11.757)">
    <path style="opacity:1;fill:#000;fill-opacity:1;stroke-width:35;stroke-dasharray:none" d="M140.707 517.89c-41.242-.732-80.486 27.171-106.078 70.327S-2.908 691.445 13.076 759.932c7.807 33.45 23.13 57.346 42.713 71.859 19.583 14.513 42.063 19.035 61.834 18.979 39.543-.113 72.356-17.387 72.356-17.387a21.473 21.473 0 0 0 5.341-3.828s8.154-7.995 17.002-16.5c4.425-4.253 9.025-8.632 12.782-12.13 3.756-3.496 7.685-6.778 6.722-6.06 4.663-3.478 6.162-5.746 8.584-8.724 2.423-2.979 4.942-6.355 7.633-10.106 5.382-7.502 11.387-16.454 17.092-25.164a1766.776 1766.776 0 0 0 21.59-33.873 21.473 21.473 0 0 0 2.666-6.482l19.93-86.575a21.473 21.473 0 0 0-4.594-18.757s-62.739-75.897-156.045-86.76a81.496 81.496 0 0 0-7.973-.533z"/>
    <path style="opacity:1;fill:#aeaaa8;fill-opacity:1;stroke-width:35;stroke-dasharray:none" d="M288.396 619.125S228.843 549.371 146.2 539.75C84.08 532.518 3.387 623.947 33.986 755.051 61.783 874.15 180.29 814.223 180.29 814.223s32.846-32.203 38.698-36.568c9.19-6.855 49.48-71.956 49.48-71.956z"/>
    <path style="opacity:1;fill:#000;fill-opacity:1;stroke-width:41.0989;stroke-dasharray:none" d="M256.555 715.287a18.548 18.548 0 0 0-3.463.62c-.046.012-82.692 22.602-144.336 65.118-30.786 21.234-58.767 48.536-63.817 85.155-5.085 36.884 16.604 75.436 67.028 111.3 49.714 35.36 93.52 49.655 131.549 48.938 38.057-.718 68.839-16.73 91.478-36.772 45.134-39.956 61.924-96.414 61.953-96.513 2.6-8.406-.988-18.33-8.367-23.125l-62.084-40.336-49.535-102.969c-3.6-7.482-12.194-12.097-20.406-11.416z"/>
    <path style="opacity:1;fill:#aeaaa8;fill-opacity:1;stroke-width:40.9833;stroke-dasharray:none" d="M379.343 888.476s-65.136 205.747-255.206 72.91C-65.933 828.549 259.748 738.66 259.748 738.66l52.323 106.868z"/>
    <path style="opacity:1;fill:#000;fill-opacity:1;stroke-width:38.8557;stroke-dasharray:none" d="M1598.246 477.057c-8.087.315-16.75.984-26.053 2.039-73.4 8.323-112.01 26.322-133.193 45.744-10.591 9.71-16.5 19.832-19.373 28.056-2.873 8.225-2.615 16.557-2.615 16.557a19.624 19.624 0 0 0 .047.512c1.062 10.245 2.388 19.92 7.082 29.654 4.693 9.735 13.376 18.258 23.763 23.59 20.775 10.664 48.22 14.157 97.723 20.105 54.192 6.512 93.909-10.695 118.563-29.959 24.654-19.263 35.841-41.523 35.841-41.523a19.624 19.624 0 0 0 .522-1.139s11.092-23.61.922-49.617c-5.085-13.004-16.394-25.898-33.477-33.73-17.083-7.832-39.435-11.47-69.752-10.29z" transform="translate(-43.743 19.812)"/>
    <path style="opacity:1;fill:#aeaaa8;fill-opacity:1;stroke-width:38.8557;stroke-dasharray:none" d="M1392.94 586.614s-4.115-53.253 137.828-69.349c141.943-16.096 108.062 64.495 108.062 64.495s-36.121 72.565-134.497 60.745c-98.375-11.82-107.44-17.762-111.393-55.891z"/>
    <path style="opacity:1;fill:#000;fill-opacity:1;stroke-width:35;stroke-dasharray:none" d="M1072.428 11.799c-213.536-2.65-498.153 121-638.032 305.92a23.027 23.027 0 0 0-.384.525c-70.706 99.176-122.563 213.07-155.334 329.711a23.027 23.027 0 0 0-.149.555c-7.817 30.746-16.598 67.624-16.175 105.115.422 37.491 11.143 77.22 43.105 106.244a23.027 23.027 0 0 0 3.764 2.776c93.814 55.45 203.194 40.965 296.525 37.289 253.363-2.752 513.422-56.025 731.385-195.243a23.027 23.027 0 0 0 5.642-5.095c92.556-116.672 139.833-271.65 114.926-420.858-15.48-109.815-107.33-183.955-205.183-224.384-.078-.038-.377-.229-.45-.266-.742-.382-.944-.462-1.175-.567-1.85-.837-2.855-1.218-5.225-2.187a3052.41 3052.41 0 0 0-19.633-7.924c-7.407-2.963-14.653-5.837-19.088-7.547a201.88 201.88 0 0 0-2.857-1.082 50.651 50.651 0 0 0-1.29-.459c-.41-.139-.261-.313-2.83-.783-37.914-14.358-81.113-21.164-127.542-21.74z"/>
    <path style="opacity:1;fill:#aeaaa8;fill-opacity:1;stroke-width:35;stroke-dasharray:none" d="M1239.36 73.772c95.07 38.187 181.526 108.109 195.573 208.34 23.85 142.06-21.37 291.206-110.194 403.175C1111.38 821.562 855.41 874.277 604.93 876.923c-94.73 3.725-198.647 16.347-283.994-34.098-52.6-47.767-35.534-127.91-20.094-188.64 32.115-114.303 82.962-225.857 151.916-322.576 164.403-217.341 553.279-353.094 745.45-274.145-19.497-8.37 57.18 22.463 41.15 16.308z"/>
    <path style="opacity:1;fill:#75716f;fill-opacity:1;stroke-width:35;stroke-dasharray:none" d="M1440.656 375.267s-78.493-19.402-75.847 40.129c2.646 59.531-15.08 14.278-50.783 10.35-15.341-1.688-28.155 59.688-34.982 37.969-12.004-38.192-74.243-50.517-42.343 2.166 26.764 44.202-20.596-6.52-22.11 43.444-1.91 63.082-57.413-39.142-34.227 66.686 18.73 85.494-12.215-8.281-36.594 58.641-11.07 30.391-78.869 57.806-24.63 51.192 54.24-6.615 26.184 92.003 26.184 92.003l242.416-190.913s59.972-124.354 52.916-211.667z"/>
    <path style="opacity:1;fill:#000;fill-opacity:1;stroke-width:36.7951;stroke-dasharray:none" d="M1308.647 561.285c-9.663-.31-20.085.024-31.329 1.102-27.643 2.649-51.656 18.388-71.712 38.437-20.065 20.057-36.656 45.124-48.76 70.541-12.097 25.403-19.895 50.984-20.58 74.05-.342 11.519 1.021 22.856 6.3 33.3 5.384 10.65 15.77 19.596 28.34 22.629.328.08 27.97 6.838 65.016 3.345 37.064-3.494 83.669-17.34 121.201-58.552 34.503-37.887 48.663-61.587 53.461-81.782 2.405-10.12 2.15-18.66 1.285-24.93a73.271 73.271 0 0 0-1.48-7.6c-.233-.947-.435-1.725-.565-2.276-.13-.551-.148-.993-.148-.621 0-16.299-8.451-32.844-25.27-45.383-16.818-12.54-41.958-21.177-75.76-22.26z"/>
    <path style="opacity:1;fill:#aeaaa8;fill-opacity:1;stroke-width:36.7951;stroke-dasharray:none" d="M1175.661 781.681s99.585 24.315 166.504-49.166c66.92-73.481 47.28-86.22 47.28-103.588 0-17.368-26.55-54.417-110.197-46.401-83.65 8.016-159.518 185.697-103.587 199.155z"/>
    <a transform="translate(112.007 -60.413)" style="fill:#000">
      <ellipse style="opacity:1;fill:#000;fill-opacity:1;stroke-width:35;stroke-dasharray:none" cx="1191.131" cy="246.645" rx="51.138" ry="50.826"/>
      <ellipse style="opacity:1;fill:#fff;fill-opacity:1;stroke-width:35;stroke-dasharray:none" cx="1163.38" cy="236.979" rx="9.043" ry="8.731"/>
    </a>
    <a style="display:inline">
      <ellipse style="opacity:1;fill:#000;fill-opacity:1;stroke-width:35;stroke-dasharray:none" cx="1191.131" cy="246.645" rx="51.138" ry="50.826"/>
      <ellipse style="opacity:1;fill:#fff;fill-opacity:1;stroke-width:35;stroke-dasharray:none" cx="1163.38" cy="236.979" rx="9.043" ry="8.731"/>
    </a>
    <a transform="matrix(1.09262 0 0 1.1641 -115.229 -38.485)">
      <path style="opacity:1;fill:#000;fill-opacity:1;stroke-width:35;stroke-dasharray:none" d="M1299.73 279.652a8.265 8.265 0 0 0-5.49.065l-32.369 11.832a8.265 8.265 0 0 0-.996.441l-29.565 15.483a8.265 8.265 0 0 0-2.27 12.89c13.12 14.384 38.428 18.269 57.083 10.041 9.328-4.113 17.04-11.181 20.613-20.027 3.574-8.846 2.478-19.226-2.687-27.338a8.265 8.265 0 0 0-4.319-3.387z" transform="matrix(1.07585 0 0 1.09873 -102.107 -25.944)"/>
      <path style="opacity:1;fill:#aeaaa8;fill-opacity:1;stroke-width:36.5729;stroke-dasharray:none" d="M1292.78 301.185a38.044 28.088 0 0 1-35.556 28.028 38.044 28.088 0 0 1-40.207-24.361 38.044 28.088 0 0 1 30.297-31.214 38.044 28.088 0 0 1 44.17 20.278"/>
      <path style="opacity:1;fill:#aeaaa8;fill-opacity:1;stroke-width:35;stroke-dasharray:none" d="M1235.253 312.048a14.343 4.755 0 0 1-13.405 4.745 14.343 4.755 0 0 1-15.16-4.124 14.343 4.755 0 0 1 11.423-5.284 14.343 4.755 0 0 1 16.653 3.433"/>
      <path style="opacity:1;fill:#000;fill-opacity:1;stroke-width:25.1928;stroke-dasharray:none" d="M1223.538 318.93a2.94 4.233 0 0 1-2.748 4.225 2.94 4.233 0 0 1-3.107-3.672 2.94 4.233 0 0 1 2.341-4.704 2.94 4.233 0 0 1 3.414 3.056"/>
    </a>
    <a transform="matrix(-.47078 .91205 .96683 .44828 1639.402 -1013.12)">
      <path style="opacity:1;fill:#000;fill-opacity:1;stroke-width:35;stroke-dasharray:none" d="M1299.73 279.652a8.265 8.265 0 0 0-5.49.065l-32.369 11.832a8.265 8.265 0 0 0-.996.441l-29.565 15.483a8.265 8.265 0 0 0-2.27 12.89c13.12 14.384 38.428 18.269 57.083 10.041 9.328-4.113 17.04-11.181 20.613-20.027 3.574-8.846 2.478-19.226-2.687-27.338a8.265 8.265 0 0 0-4.319-3.387z" transform="matrix(1.1107 -.02342 -.02457 1.19225 -137.676 -26.143)"/>
      <path style="opacity:1;fill:#aeaaa8;fill-opacity:1;stroke-width:36.5729;stroke-dasharray:none" d="M1294.237 302.999a38.044 28.088 0 0 1-35.555 28.027 38.044 28.088 0 0 1-40.207-24.361 38.044 28.088 0 0 1 30.296-31.214 38.044 28.088 0 0 1 44.17 20.278"/>
      <path style="opacity:1;fill:#aeaaa8;fill-opacity:1;stroke-width:35;stroke-dasharray:none" d="M1234.884 312.048a13.974 4.755 0 0 1-13.06 4.745 13.974 4.755 0 0 1-14.77-4.124 13.974 4.755 0 0 1 11.13-5.284 13.974 4.755 0 0 1 16.223 3.433"/>
      <path style="opacity:1;fill:#000;fill-opacity:1;stroke-width:25.1928;stroke-dasharray:none" d="M1223.538 318.93a2.94 4.233 0 0 1-2.748 4.225 2.94 4.233 0 0 1-3.107-3.672 2.94 4.233 0 0 1 2.341-4.704 2.94 4.233 0 0 1 3.414 3.056"/>
    </a>
    <path style="opacity:1;fill:#000;fill-opacity:1;stroke-width:35;stroke-dasharray:none" d="M1246.461 284.01s-9.702-8.766 21.837-27.545c28.84-17.17 40.41-11.83 40.41-11.83s8.227.171 7.656 11.83c-1.053 21.522-1.972 33.339-28.01 36.714-24.021 3.115-41.893-9.168-41.893-9.168z"/>
    <path style="opacity:1;fill:#75716f;fill-opacity:1;stroke-width:35;stroke-dasharray:none" d="M1516.688 518.997s67.973-16.352 110.672 10.776c29.813 18.941 11.206 52.807 11.206 52.807s-18.982 37.058-60.473 51.65c-29.617 10.417-38.977 8.731-38.977 8.731s-50.202-5.924-33.364-18.085c16.838-12.16 43.654-20.58 33.676-31.805-9.978-11.225-63.922-48.643-37.106-47.396 26.816 1.248 14.366-26.678 14.366-26.678zM1030.993 739.51c-14.111-18.08-56.054-8.11-61.736 17.198-4.85 21.608-24.695-122.59-59.09-94.368-34.396 28.222-54.37 35.225-64.382 65.264-4.851 14.552-61.295-8.82-24.254-26.458 37.042-17.64-83.784-65.705-81.139-14.552 2.646 51.153 34.837 75.847-1.323 55.562-36.16-20.284-70.114-17.639-59.53 1.764 10.583 19.403 22.048 71.879 0 44.538-41.542-53.708-97.785-7.493-69.674 29.545 15.875 29.987 109.313 54.7 109.313 54.7 64.364-4.933 133.62-14.466 186.773-25.115 157.434-31.54 158.712-38.46 234.641-68.309 13.078-5.14-90.762-15.634-109.599-39.769zM610.49 186.594s97.27 29.923 58.024 77.548c-39.247 47.625-51.594 104.07-10.583 94.81 41.01-9.261 83.343 7.496 71.878 31.75-11.465 24.253 41.451 81.58-33.073 63.94-74.524-17.639-84.667-17.639-69.673 5.292 14.993 22.93 23.371 59.972-12.789 48.507-36.16-11.465-91.28-3.969-62.618-33.955 28.663-29.986 63.5-76.288 23.813-57.767-39.688 18.52-82.903 110.684-104.51 72.76-21.608-37.923-54.24-21.607-54.681-.882-.441 20.726 39.246 67.028.44 58.65-38.805-8.379-57.326 26.899-65.704 7.937-8.379-18.962-1.764-36.6-1.764-36.6s83.969-231.008 261.24-331.99zM137.557 539.3s39.242 26.643 13.985 51.588c-25.257 24.946-43.966 42.095-20.58 43.966 23.386 1.871 95.727-9.666 70.158 4.99-25.568 14.655-51.45 34.922-26.192 33.675 25.257-1.247 57.062 20.58 33.988 27.752-23.075 7.171-53.944 32.74-31.494 28.998 22.451-3.741 22.418 3.875 22.418 3.875l-55.83 25.522s13.456-43.116-4.005-38.751c-17.462 4.365-46.772-14.343-34.612-23.698 12.161-9.354 43.966-40.224 22.763-35.235-21.204 4.99-46.772-10.913-32.117-16.838 14.655-5.924-13.096-20.58 0-25.257 13.096-4.677 35.859-29.934 14.967-29.622-20.892.312-35.859-15.28-18.709-17.15 17.15-1.87 10.955-24.238 10.955-24.238 14.112-8.074 19.072-8.334 34.305-9.578zm147.886 222.96s133.67-140.327 137.45-96.392c3.527 41.01-43.657 101.865 5.732 78.493 49.389-23.371 69.674-53.358 49.83-66.587-19.844-13.229 21.167-35.277 21.167-35.277s37.923-16.316 33.954 11.906c-3.968 28.222 48.948 29.104 45.42 3.969-3.527-25.136-62.177-47.625-29.986-48.066 32.191-.441 68.792 5.732 60.414 26.017-8.379 20.285 30.868 69.233-1.323 61.736-32.191-7.496-83.785-1.764-76.288 22.049 7.496 23.812 17.638 61.736-14.112 49.389-31.75-12.348-54.68-12.348-54.24 10.583.442 22.93 27.782 62.618-13.67 51.594-41.45-11.025-132.291-26.459-104.95-53.799 25.519-25.52-57.924-1.025-57.924-1.025zm737.747-563.403c-22.008 27.545 67.628 19.915 68.791 53.357 1.238 35.599-58.973 13.258-102.747 52.035-35.393 31.353 98.077-2.817 85.55 65.705-9.35 51.138 58.319-.908 52.916 58.208-4.715 51.586-171.697 107.059-173.302 65.705-2.376-61.18-64.48-88.834-93.927-53.799-33.345 39.671-76.917-3.749-65.264-47.184 12.818-47.777 108.413-83.358 75.847-115.534C695.127 103.53 987.04 74.096 980.415 111.103c-13.23 31.75-41.451 49.83-1.323 39.688 40.129-10.143 106.715-51.153 96.132-27.34-16.935 38.104-12.118 25.445-52.035 75.406z"/>
    <path style="opacity:1;fill:#aeaaa8;fill-opacity:1;stroke-width:35;stroke-dasharray:none" d="M1384.897 614.473s10.473 22.49 6.725 35.609c-3.516 12.304-26.459-20.836-26.459-20.836zM255.443 739.909l7.437-2.313-.437 6.875z"/>
    <path style="opacity:1;fill:#000;fill-opacity:1;stroke-width:35;stroke-dasharray:none" d="M252.74 715.952s9.133-2.155 12.713-5.426c3.58-3.27.5 10.199.5 10.199z"/>
  </g>
</svg>
